<svg width="59" height="58" viewBox="0 0 59 58" fill="none" xmlns="http://www.w3.org/2000/svg">
<path d="M21.4682 0.746979L56.6468 15.5013C59.4117 17.868 57.7988 20.3119 56.6468 20.9694L8.75517 39.2123L38.0447 52.092L30.9405 36.7475C30.3485 34.3868 32.4541 34.2519 33.4415 35.0736C35.2519 38.6893 39.819 48.1446 42.1889 53.2724C44.5588 58.4001 40.8474 57.6196 38.8725 56.4691C28.3396 52.3603 6.28616 43.6497 2.33634 41.6775C-1.61347 39.7053 0.286213 37.4049 1.93197 36.7475L46.333 19.0424L25.0203 9.59958L27.9804 16.6817C29.5603 19.8372 27.7838 22.0903 26.7963 22.5834C23.6365 23.3723 21.592 21.1337 21.0984 19.9832L16.1611 7.16386C13.7912 0.0639119 17.916 -1.02351 21.4682 0.746979Z" fill="#9460A4"/>
</svg>
